<?xml version="1.0" encoding="utf-8"?>
<!-- Generator: Adobe Illustrator 22.1.0, SVG Export Plug-In . SVG Version: 6.00 Build 0)  -->
<svg version="1.1" id="design" xmlns="http://www.w3.org/2000/svg" xmlns:xlink="http://www.w3.org/1999/xlink" x="0px" y="0px"
	 viewBox="0 0 300 300" style="enable-background:new 0 0 300 300;" xml:space="preserve">
<style type="text/css">
	.st0{fill:#F4A775;}
	.st1{fill:#D96757;}
	.st2{fill:#AB5144;}
	.st3{fill:#F37361;}
	.st4{fill:#A0C2BB;}
	.st5{fill:#495769;}
	.st6{fill:#F4C667;}
	.st7{fill:#CF6353;}
</style>
<path id="_x33_d_x5F_graph_x5F_icon_1_" class="st0" d="M141.8,29.6L41.1,67.4C32,70.8,26,79.5,26,89.2v109.1
	c0,8.8,5,16.9,12.8,20.8l100.8,50.4c6.5,3.3,14.2,3.3,20.8,0L261.2,219c7.9-3.9,12.8-12,12.8-20.8V89.2c0-9.7-6-18.4-15.1-21.8
	L158.2,29.7C152.9,27.6,147.1,27.6,141.8,29.6z M150,59.7l93,34.9v0.5l-93,37.8L57,95.1v-0.5C57,94.6,150,59.7,150,59.7z
	 M165.5,232.2V160l77.5-31.5v64.9L165.5,232.2z"/>
</svg>
