<?xml version="1.0" encoding="utf-8"?>
<!-- Generator: Adobe Illustrator 22.1.0, SVG Export Plug-In . SVG Version: 6.00 Build 0)  -->
<svg version="1.1" id="design" xmlns="http://www.w3.org/2000/svg" xmlns:xlink="http://www.w3.org/1999/xlink" x="0px" y="0px"
	 viewBox="0 0 300 300" style="enable-background:new 0 0 300 300;" xml:space="preserve">
<style type="text/css">
	.st0{fill:#F4A775;}
	.st1{fill:#D96757;}
	.st2{fill:#AB5144;}
	.st3{fill:#F37361;}
	.st4{fill:#A0C2BB;}
	.st5{fill:#495769;}
	.st6{fill:#F4C667;}
	.st7{fill:#CF6353;}
</style>
<g id="doughnut_x5F_chart_x5F_grp_1_">
	<path class="st1" d="M159.7,89.5c26.3,4.1,46.8,24.5,50.9,50.9c0.4,2.5,2.5,4.3,5,4.3h51.2c1.4,0,2.8-0.6,3.7-1.6
		c1-1,1.4-2.5,1.3-3.9c-5.1-59.2-51.8-105.9-111-111c-1.4-0.1-2.8,0.4-3.9,1.3c-1.1,1-1.6,2.3-1.6,3.8v51.2
		C155.3,87,157.2,89.1,159.7,89.5z"/>
	<path class="st2" d="M266.8,154.8h-51.2c-2.5,0-4.6,1.8-5,4.3c-1.5,9.6-5.3,18.8-11,26.6c-1.5,2-1.3,4.8,0.5,6.6l36.2,36.2
		c1,1,2.2,1.5,3.6,1.5c0.1,0,0.1,0,0.2,0c1.4-0.1,2.8-0.7,3.7-1.8c16.2-19.3,25.9-42.8,28.1-67.9c0.1-1.4-0.4-2.8-1.3-3.9
		C269.6,155.4,268.2,154.8,266.8,154.8z"/>
	<path class="st3" d="M192.8,199.5c-1.8-1.8-4.6-2-6.6-0.5c-10.6,7.7-23,11.8-36,11.8c-33.7,0-61.1-27.4-61.1-61.1
		c0-30.3,21.7-55.6,51.7-60.3c2.5-0.4,4.3-2.5,4.3-5V33.2c0-1.4-0.6-2.8-1.6-3.8c-1.1-1-2.4-1.5-3.9-1.3
		C77.1,33.5,28.1,86.9,28.1,149.7c0,67.3,54.8,122.1,122.1,122.1c28.7,0,56.5-10.2,78.5-28.6c1.1-0.9,1.7-2.3,1.8-3.7
		c0.1-1.4-0.5-2.8-1.5-3.8L192.8,199.5z"/>
</g>
</svg>
