<?xml version="1.0" encoding="utf-8"?>
<!-- Generator: Adobe Illustrator 22.1.0, SVG Export Plug-In . SVG Version: 6.00 Build 0)  -->
<svg version="1.1" id="design" xmlns="http://www.w3.org/2000/svg" xmlns:xlink="http://www.w3.org/1999/xlink" x="0px" y="0px"
	 viewBox="0 0 300 300" style="enable-background:new 0 0 300 300;" xml:space="preserve">
<style type="text/css">
	.st0{fill:#F4A775;}
	.st1{fill:#D96757;}
	.st2{fill:#AB5144;}
	.st3{fill:#F37361;}
	.st4{fill:#A0C2BB;}
	.st5{fill:#495769;}
	.st6{fill:#F4C667;}
	.st7{fill:#CF6353;}
</style>
<g id="group_x5F_chart_x5F_grp">
	<path class="st7" d="M40.2,262.9H27.3c-3.2,0-5.8-2.6-5.8-5.8v-169c0-3.2,2.6-5.8,5.8-5.8h12.9c3.2,0,5.8,2.6,5.8,5.8v169
		C45.9,260.3,43.4,262.9,40.2,262.9z"/>
	<path class="st3" d="M69.7,262.9H56.8c-3.2,0-5.8-2.6-5.8-5.8V42.9c0-3.2,2.6-5.8,5.8-5.8h12.9c3.2,0,5.8,2.6,5.8,5.8v214.2
		C75.5,260.3,72.9,262.9,69.7,262.9z"/>
	<path class="st7" d="M107.8,262.9H95c-3.2,0-5.8-2.6-5.8-5.8V119c0-3.2,2.6-5.8,5.8-5.8h12.9c3.2,0,5.8,2.6,5.8,5.8v138.1
		C113.6,260.3,111,262.9,107.8,262.9z"/>
	<path class="st3" d="M137.4,262.9h-12.9c-3.2,0-5.8-2.6-5.8-5.8V144.4c0-3.2,2.6-5.8,5.8-5.8h12.9c3.2,0,5.8,2.6,5.8,5.8v112.7
		C143.1,260.3,140.5,262.9,137.4,262.9z"/>
	<path class="st7" d="M175.5,262.9h-12.9c-3.2,0-5.8-2.6-5.8-5.8V132.6c0-3.2,2.6-5.8,5.8-5.8h12.9c3.2,0,5.8,2.6,5.8,5.8v124.5
		C181.3,260.3,178.7,262.9,175.5,262.9z"/>
	<path class="st3" d="M205,262.9h-12.9c-3.2,0-5.8-2.6-5.8-5.8V152.7c0-3.2,2.6-5.8,5.8-5.8H205c3.2,0,5.8,2.6,5.8,5.8v104.4
		C210.8,260.3,208.2,262.9,205,262.9z"/>
	<path class="st7" d="M243.2,262.9h-12.9c-3.2,0-5.8-2.6-5.8-5.8V129c0-3.2,2.6-5.8,5.8-5.8h12.9c3.2,0,5.8,2.6,5.8,5.8v128.1
		C249,260.3,246.4,262.9,243.2,262.9z"/>
	<path class="st3" d="M272.7,262.9h-12.9c-3.2,0-5.8-2.6-5.8-5.8V148.1c0-3.2,2.6-5.8,5.8-5.8h12.9c3.2,0,5.8,2.6,5.8,5.8v109.1
		C278.5,260.3,275.9,262.9,272.7,262.9z"/>
</g>
</svg>
