<?xml version="1.0" encoding="utf-8"?>
<!-- Generator: Adobe Illustrator 22.1.0, SVG Export Plug-In . SVG Version: 6.00 Build 0)  -->
<svg version="1.1" id="design" xmlns="http://www.w3.org/2000/svg" xmlns:xlink="http://www.w3.org/1999/xlink" x="0px" y="0px"
	 viewBox="0 0 300 300" style="enable-background:new 0 0 300 300;" xml:space="preserve">
<style type="text/css">
	.st0{fill:#F4A775;}
	.st1{fill:#D96757;}
	.st2{fill:#AB5144;}
	.st3{fill:#F37361;}
	.st4{fill:#A0C2BB;}
	.st5{fill:#495769;}
	.st6{fill:#F4C667;}
	.st7{fill:#CF6353;}
</style>
<path id="horizontal_x5F_chart" class="st6" d="M275.6,218.6v24.3c0,3.2-2.6,5.8-5.8,5.8H30.2c-3.2,0-5.8-2.6-5.8-5.8v-24.3
	c0-3.2,2.6-5.8,5.8-5.8h239.6C273,212.8,275.6,215.4,275.6,218.6z M221.7,164.7v24.3c0,3.2-2.6,5.8-5.8,5.8H30.2
	c-3.2,0-5.8-2.6-5.8-5.8v-24.3c0-3.2,2.6-5.8,5.8-5.8H216C219.2,159,221.7,161.6,221.7,164.7z M167.9,110.9v24.3
	c0,3.2-2.6,5.8-5.8,5.8h-132c-3.2,0-5.8-2.6-5.8-5.8v-24.3c0-3.2,2.6-5.8,5.8-5.8h132C165.4,105.2,167.9,107.7,167.9,110.9z
	 M114.1,57.1v24.3c0,3.2-2.6,5.8-5.8,5.8H30.2c-3.2,0-5.8-2.6-5.8-5.8V57.1c0-3.2,2.6-5.8,5.8-5.8h78.1
	C111.5,51.3,114.1,53.9,114.1,57.1z"/>
</svg>
