<?xml version="1.0" encoding="utf-8"?>
<!-- Generator: Adobe Illustrator 22.1.0, SVG Export Plug-In . SVG Version: 6.00 Build 0)  -->
<svg version="1.1" id="design" xmlns="http://www.w3.org/2000/svg" xmlns:xlink="http://www.w3.org/1999/xlink" x="0px" y="0px"
	 viewBox="0 0 300 300" style="enable-background:new 0 0 300 300;" xml:space="preserve">
<style type="text/css">
	.st0{fill:#F4A775;}
	.st1{fill:#D96757;}
	.st2{fill:#AB5144;}
	.st3{fill:#F37361;}
	.st4{fill:#A0C2BB;}
	.st5{fill:#495769;}
	.st6{fill:#F4C667;}
	.st7{fill:#CF6353;}
</style>
<g>
	<path class="st4" d="M70.5,108.2v126.9c0,3.2-2.6,5.8-5.8,5.8H30.8c-3.2,0-5.8-2.6-5.8-5.8V108.2c0-3.2,2.6-5.8,5.8-5.8h33.9
		C67.9,102.4,70.5,105,70.5,108.2z M138.6,82.5v152.7c0,3.2-2.6,5.8-5.8,5.8H99c-3.2,0-5.8-2.6-5.8-5.8V82.5c0-3.2,2.6-5.8,5.8-5.8
		h33.9C136.1,76.7,138.6,79.3,138.6,82.5z M206.8,64.9v170.3c0,3.2-2.6,5.8-5.8,5.8h-33.9c-3.2,0-5.8-2.6-5.8-5.8V64.9
		c0-3.2,2.6-5.8,5.8-5.8H201C204.2,59.1,206.8,61.7,206.8,64.9z M275,133v102.1c0,3.2-2.6,5.8-5.8,5.8h-33.9c-3.2,0-5.8-2.6-5.8-5.8
		V133c0-3.2,2.6-5.8,5.8-5.8h33.9C272.4,127.3,275,129.9,275,133z"/>
	<path class="st5" d="M70.5,147v88.1c0,3.2-2.6,5.8-5.8,5.8H30.8c-3.2,0-5.8-2.6-5.8-5.8V147c0-3.2,2.6-5.8,5.8-5.8h33.9
		C67.9,141.3,70.5,143.8,70.5,147z M138.6,168.4v66.8c0,3.2-2.6,5.8-5.8,5.8H99c-3.2,0-5.8-2.6-5.8-5.8v-66.8c0-3.2,2.6-5.8,5.8-5.8
		h33.9C136.1,162.6,138.6,165.2,138.6,168.4z M206.8,189.7v45.4c0,3.2-2.6,5.8-5.8,5.8h-33.9c-3.2,0-5.8-2.6-5.8-5.8v-45.4
		c0-3.2,2.6-5.8,5.8-5.8H201C204.2,184,206.8,186.6,206.8,189.7z M275,211.1v24c0,3.2-2.6,5.8-5.8,5.8h-33.9c-3.2,0-5.8-2.6-5.8-5.8
		v-24c0-3.2,2.6-5.8,5.8-5.8h33.9C272.4,205.3,275,207.9,275,211.1z"/>
</g>
</svg>
